# xmcd
#
# Track frame offsets: 
#        150
#        12816
#        22727
#        35380
#        47230
#        59781
#        78105
#        88762
#        99522
#        109301
#        120381
#        133154
#        145027
#        158533
#        169171
#        180573
#        194079
#        205820
#        216976
#        225405
#
# Disc length: 3178 seconds
#
# Revision: 0
# Processed by: cddbd v1.5.2PL0 Copyright (c) Steve Scherf et al.
# Submitted via: ExactAudioCopy v1.1
#
DISCID=0c0c6814
DTITLE=Diddley, Bo - Diddley, Bo - The Absolute Essential Collection  
DTITLE=cd3
DYEAR=2015
DGENRE=Blues
TTITLE0=Road Runner
TTITLE1=Diddling
TTITLE2=Nursery Rhyme
TTITLE3=Live My Life
TTITLE4=Cadillac
TTITLE5=Spanish guitar
TTITLE6=Dancing girl
TTITLE7=Love Me
TTITLE8=Not Guilty
TTITLE9=Aztec
TTITLE10=Pills
TTITLE11=Bo's blues
TTITLE12=Hong Kong, Mississippi
TTITLE13=You're Looking Good
TTITLE14=Bo Diddley is a lover
TTITLE15=Bo Diddley Is Loose
TTITLE16=Congo
TTITLE17=Back Home
TTITLE18=Quick draw
TTITLE19=Sick and tired
EXTD=
EXTT0=
EXTT1=
EXTT2=
EXTT3=
EXTT4=
EXTT5=
EXTT6=
EXTT7=
EXTT8=
EXTT9=
EXTT10=
EXTT11=
EXTT12=
EXTT13=
EXTT14=
EXTT15=
EXTT16=
EXTT17=
EXTT18=
EXTT19=
PLAYORDER=
